<svg xmlns="http://www.w3.org/2000/svg" xmlns:xlink="http://www.w3.org/1999/xlink" version="1.1" x="0px" y="0px" viewBox="0 0 100 125" enable-background="new 0 0 100 100" xml:space="preserve"><g><path d="M91.733,19.806l-6.173-6.175c-1.062-1.062-2.474-1.646-3.976-1.646s-2.914,0.585-3.975,1.646L55.764,35.477   c-0.037,0.028-0.082,0.043-0.116,0.077c-7.021,7.021-8.923,21.437-9.001,22.047c-0.039,0.307,0.066,0.614,0.285,0.833   c0.188,0.188,0.443,0.293,0.707,0.293c0.042,0,0.084-0.003,0.126-0.008c0.61-0.078,15.026-1.979,22.049-9.001   c0.035-0.035,0.052-0.082,0.081-0.121l21.84-21.841c1.062-1.062,1.646-2.474,1.646-3.975   C93.381,22.278,92.796,20.867,91.733,19.806z M48.839,56.526c0.15-0.866,0.389-2.108,0.732-3.565l2.834,2.834   C50.947,56.138,49.705,56.377,48.839,56.526z M64.094,51.483c-3.014,1.71-6.463,2.913-9.437,3.734l-4.51-4.509   c0.822-2.976,2.026-6.427,3.737-9.441c0.259-0.455,0.527-0.901,0.809-1.333c0.521-0.797,1.08-1.55,1.685-2.236l0.034,0.034   l11.22,11.218l0.037,0.037c-0.687,0.604-1.439,1.165-2.237,1.686C64.998,50.955,64.551,51.225,64.094,51.483z M69.086,47.577   L57.788,36.28l21.236-21.235c0.684-0.684,1.593-1.061,2.561-1.061s1.878,0.377,2.562,1.061l6.173,6.175   c0.685,0.685,1.062,1.594,1.062,2.562c0,0.967-0.377,1.876-1.061,2.561L69.086,47.577z"/><path d="M68.927,35.025l-3.901,3.901c-0.391,0.391-0.391,1.023,0,1.414c0.195,0.195,0.451,0.293,0.707,0.293   s0.512-0.098,0.707-0.293l3.901-3.901c0.391-0.391,0.391-1.023,0-1.414S69.317,34.635,68.927,35.025z"/><path d="M84.668,19.283L70.691,33.261c-0.391,0.391-0.391,1.023,0,1.414c0.195,0.195,0.451,0.293,0.707,0.293   s0.512-0.098,0.707-0.293l13.977-13.978c0.391-0.391,0.391-1.023,0-1.414S85.059,18.893,84.668,19.283z"/><path d="M79.757,45.358c-0.553,0-1,0.447-1,1v33.19c0,3.299-2.684,5.982-5.982,5.982H25.273c-3.298,0-5.981-2.684-5.981-5.982   v-46.42c0-3.298,2.684-5.981,5.981-5.981h31.913c0.553,0,1-0.447,1-1s-0.447-1-1-1H25.273c-4.401,0-7.981,3.58-7.981,7.981v46.42   c0,4.401,3.58,7.982,7.981,7.982h47.501c4.401,0,7.982-3.581,7.982-7.982v-33.19C80.757,45.806,80.31,45.358,79.757,45.358z"/><path d="M24.061,62.334c-0.553,0-1,0.447-1,1v11.858c0,3.679,2.992,6.672,6.671,6.672h38.585c0.553,0,1-0.447,1-1s-0.447-1-1-1   H29.731c-2.575,0-4.671-2.096-4.671-4.672V63.334C25.061,62.781,24.613,62.334,24.061,62.334z"/></g><text x="0" y="115" fill="#000000" font-size="5px" font-weight="bold" font-family="'Helvetica Neue', Helvetica, Arial-Unicode, Arial, Sans-serif">Created by Sean Maldjian</text><text x="0" y="120" fill="#000000" font-size="5px" font-weight="bold" font-family="'Helvetica Neue', Helvetica, Arial-Unicode, Arial, Sans-serif">from the Noun Project</text></svg>