<svg xmlns="http://www.w3.org/2000/svg" xmlns:xlink="http://www.w3.org/1999/xlink" version="1.1" x="0px" y="0px" viewBox="0 0 100 125" style="enable-background:new 0 0 100 100;" xml:space="preserve"><g><path d="M201.2,149.3c8.5,0,15.5-12,15.5-20.5c0-8.5-6.9-15.5-15.5-15.5c-8.5,0-15.5,6.9-15.5,15.5   C185.8,137.3,192.7,149.3,201.2,149.3z M188.3,128.7c0-7.1,5.8-12.9,12.9-12.9c7.1,0,12.9,5.8,12.9,12.9c0,3.8-1.6,8.4-4.1,12   c-2.6,3.8-5.8,6-8.8,6c-3,0-6.2-2.2-8.8-6C189.9,137.1,188.3,132.5,188.3,128.7z"/><path d="M201.2,151.8c-14.5,0-26.2,10.1-26.2,22.6s11.7,30,26.2,30c14.5,0,26.2-17.5,26.2-30S215.7,151.8,201.2,151.8z    M201.2,201.9c-3.4,0-10-1.2-16.5-9.4c-4.4-5.5-7.1-12.4-7.1-18.1c0-11.1,10.6-20.1,23.6-20.1c13,0,23.6,9,23.6,20.1   c0,5.7-2.7,12.6-7.1,18.1C211.3,200.7,204.6,201.9,201.2,201.9z"/></g><g><path d="M50,34.2c-8.7,0-15.8,7.1-15.8,15.8c0,8.7,7.1,15.8,15.8,15.8c8.7,0,15.8-7.1,15.8-15.8C65.8,41.3,58.7,34.2,50,34.2z    M50,62.9c-7.1,0-12.9-5.8-12.9-12.9c0-7.1,5.8-12.9,12.9-12.9c7.1,0,12.9,5.8,12.9,12.9C62.9,57.1,57.1,62.9,50,62.9z"/><path d="M50,13c-20.4,0-37,16.6-37,37c0,11,4.9,21,12.6,27.7c0,0,0.1,0.1,0.1,0.1c0.2,0.2,0.5,0.4,0.7,0.6c0.1,0,0.1,0.1,0.2,0.1   c0.4,0.3,0.8,0.6,1.2,0.9c0.1,0,0.1,0.1,0.2,0.1c0.4,0.3,0.8,0.6,1.2,0.9c0.1,0.1,0.2,0.1,0.2,0.2c0.4,0.3,0.8,0.5,1.2,0.8   c0.1,0.1,0.2,0.1,0.3,0.2c0.4,0.2,0.7,0.4,1.1,0.6c0.1,0.1,0.3,0.2,0.4,0.2c0.3,0.2,0.6,0.3,1,0.5c1.1,0.6,2.2,1.1,3.4,1.5   c0.1,0,0.2,0.1,0.2,0.1c0.4,0.2,0.8,0.3,1.2,0.4c0.1,0,0.2,0.1,0.4,0.1c0.4,0.1,0.8,0.2,1.2,0.4c0.1,0,0.3,0.1,0.4,0.1   c0.4,0.1,0.8,0.2,1.2,0.3c0.2,0,0.3,0.1,0.5,0.1c0.4,0.1,0.7,0.2,1.1,0.2c0.2,0,0.4,0.1,0.6,0.1c0.3,0.1,0.7,0.1,1,0.2   c0.3,0,0.5,0.1,0.8,0.1c0.3,0,0.6,0.1,0.9,0.1c0.3,0,0.7,0.1,1,0.1c0.2,0,0.5,0,0.7,0c0.6,0,1.2,0,1.8,0c0.6,0,1.2,0,1.8,0   c0.2,0,0.5,0,0.7,0c0.3,0,0.7,0,1-0.1c0.3,0,0.6-0.1,0.9-0.1c0.3,0,0.5-0.1,0.8-0.1c0.3,0,0.7-0.1,1-0.2c0.2,0,0.4-0.1,0.6-0.1   c0.4-0.1,0.7-0.1,1.1-0.2c0.2,0,0.4-0.1,0.5-0.1c0.4-0.1,0.8-0.2,1.2-0.3c0.1,0,0.3-0.1,0.4-0.1c0.4-0.1,0.8-0.2,1.2-0.4   c0.1,0,0.2-0.1,0.4-0.1c0.4-0.1,0.8-0.3,1.2-0.4c0.1,0,0.2-0.1,0.3-0.1c1.1-0.4,2.2-0.9,3.3-1.5c0.3-0.2,0.7-0.3,1-0.5   c0.1-0.1,0.3-0.1,0.4-0.2c0.4-0.2,0.8-0.4,1.1-0.7c0.1-0.1,0.2-0.1,0.3-0.2c0.4-0.3,0.8-0.5,1.2-0.8c0.1,0,0.1-0.1,0.2-0.1   c0.4-0.3,0.8-0.6,1.2-0.9c0.1,0,0.1-0.1,0.2-0.1c0.4-0.3,0.8-0.6,1.2-1c0,0,0.1-0.1,0.1-0.1c0.2-0.2,0.5-0.4,0.7-0.6   c0,0,0.1-0.1,0.1-0.1C82.1,71,87,61,87,50C87,29.6,70.4,13,50,13z M71.9,75.8l0,0.3c-0.5,0.4-1,0.8-1.5,1.2c-0.1,0-0.1,0.1-0.2,0.1   c-0.4,0.3-0.7,0.5-1.1,0.8c-0.1,0.1-0.2,0.1-0.3,0.2c-0.3,0.2-0.6,0.4-1,0.6c-0.1,0.1-0.3,0.2-0.4,0.3c-0.3,0.2-0.6,0.3-0.9,0.5   c-0.2,0.1-0.4,0.2-0.6,0.3c-0.2,0.1-0.5,0.3-0.7,0.4c-0.2,0.1-0.5,0.2-0.7,0.4c-0.2,0.1-0.4,0.2-0.6,0.3c-0.3,0.1-0.6,0.3-0.9,0.4   c-0.1,0-0.1,0.1-0.2,0.1c-1.2,0.5-2.5,0.9-3.8,1.3c-0.1,0-0.1,0-0.2,0.1c-0.4,0.1-0.7,0.2-1.1,0.3c-0.1,0-0.3,0.1-0.4,0.1   c-0.3,0.1-0.7,0.1-1,0.2c-0.2,0-0.4,0.1-0.6,0.1c-0.3,0.1-0.6,0.1-0.9,0.1c-0.2,0-0.5,0.1-0.7,0.1c-0.3,0-0.5,0.1-0.8,0.1   c-0.3,0-0.6,0.1-0.9,0.1c-0.2,0-0.4,0-0.6,0c-0.5,0-1.1,0-1.6,0s-1.1,0-1.6,0c-0.2,0-0.4,0-0.6,0c-0.3,0-0.6,0-0.9-0.1   c-0.3,0-0.5-0.1-0.8-0.1c-0.2,0-0.5-0.1-0.7-0.1c-0.3,0-0.6-0.1-0.9-0.1c-0.2,0-0.4-0.1-0.6-0.1c-0.3-0.1-0.7-0.1-1-0.2   c-0.2,0-0.3-0.1-0.5-0.1c-0.4-0.1-0.7-0.2-1.1-0.3c-0.1,0-0.2,0-0.2-0.1c-1.3-0.4-2.6-0.8-3.8-1.3c-0.1,0-0.2-0.1-0.2-0.1   c-0.3-0.1-0.6-0.3-0.9-0.4c-0.2-0.1-0.4-0.2-0.6-0.3c-0.2-0.1-0.5-0.2-0.7-0.3c-0.2-0.1-0.5-0.2-0.7-0.4c-0.2-0.1-0.4-0.2-0.6-0.3   c-0.3-0.2-0.6-0.3-0.9-0.5c-0.2-0.1-0.3-0.2-0.5-0.3c-0.3-0.2-0.6-0.4-1-0.6c-0.1-0.1-0.2-0.1-0.3-0.2c-0.4-0.3-0.7-0.5-1.1-0.8   c-0.1,0-0.1-0.1-0.2-0.1c-0.5-0.4-1-0.8-1.5-1.2l0-0.3C28,72.7,27.9,70,29,68.9c0.6-0.6,1.6-0.9,3.1-0.9h3.5   c4.1,3.3,9.2,5.1,14.5,5.1c5.3,0,10.4-1.8,14.5-5.1h3.5c1.5,0,2.5,0.3,3.1,0.9C72.1,70,72,72.7,71.9,75.8z M74.9,73.2   c0-2.6-0.3-4.8-1.8-6.3c-1.2-1.2-2.9-1.8-5.2-1.8h-4c-0.3,0-0.7,0.1-0.9,0.3c-3.6,3.1-8.3,4.8-13,4.8c-4.7,0-9.4-1.7-13-4.8   c-0.3-0.2-0.6-0.3-0.9-0.3h-4c-2.3,0-4,0.6-5.2,1.8c-1.5,1.5-1.8,3.7-1.8,6.3C19.4,67.1,15.9,59,15.9,50   c0-18.8,15.3-34.1,34.1-34.1c18.8,0,34.1,15.3,34.1,34.1C84.1,59,80.6,67.1,74.9,73.2z"/></g><text x="0" y="115" fill="#000000" font-size="5px" font-weight="bold" font-family="'Helvetica Neue', Helvetica, Arial-Unicode, Arial, Sans-serif">Created by Michal Beno</text><text x="0" y="120" fill="#000000" font-size="5px" font-weight="bold" font-family="'Helvetica Neue', Helvetica, Arial-Unicode, Arial, Sans-serif">from the Noun Project</text></svg>